<?xml version="1.0" encoding="utf-8"?>
<!-- Generator: Adobe Illustrator 25.0.0, SVG Export Plug-In . SVG Version: 6.00 Build 0)  -->
<svg version="1.1" id="Layer_1" focusable="false" xmlns="http://www.w3.org/2000/svg" xmlns:xlink="http://www.w3.org/1999/xlink"
	 x="0px" y="0px" viewBox="0 0 512 512" style="enable-background:new 0 0 512 512;" xml:space="preserve">
<path d="M5.7,263.9c0,42.1,10.5,81.8,29,116.5c7.6,14.3,16.6,27.7,26.7,40.2c45.5,55.8,114.7,91.3,192.3,91.3
	c77.6,0,146.8-35.6,192.3-91.3c2.7-3.2,5.2-6.6,7.7-10c30.2-41.1,48-91.8,48-146.7c0-54.9-17.8-105.6-48-146.7
	c-4.2-5.7-8.5-11.1-13.2-16.4c-45.5-52-112.3-84.9-186.8-84.9S112.3,48.8,66.8,100.8c-12.4,14.2-23.2,29.8-32.2,46.6
	C16.2,182.1,5.7,221.8,5.7,263.9z M255,420.6c-6.1,0-12.3-2.4-16.9-7.1L105.4,280.9c-9.4-9.4-9.4-24.6,0-33.9l132.7-132.8
	c9.4-9.4,24.6-9.4,33.9,0l11,10.9c9.5,9.6,9.3,25.1-0.4,34.4l-75.5,72.4h182.6c13.3,0,24,10.7,24,24l0,16c0,13.3-10.7,24-24,24
	l-182.6,0l75.5,72.4c9.7,9.3,9.9,24.8,0.4,34.3l-11,10.9C267.3,418.2,261.1,420.6,255,420.6z"/>
</svg>
