<?xml version="1.0" encoding="utf-8"?>
<!-- Generator: Adobe Illustrator 25.0.0, SVG Export Plug-In . SVG Version: 6.00 Build 0)  -->
<svg version="1.1" id="Layer_1" focusable="false" xmlns="http://www.w3.org/2000/svg" xmlns:xlink="http://www.w3.org/1999/xlink"
	 x="0px" y="0px" viewBox="0 0 512 512" style="enable-background:new 0 0 512 512;" xml:space="preserve">
<path d="M475,147.5c-8.9-16.8-19.8-32.4-32.2-46.6C397.4,48.9,330.5,16,256,16S114.6,48.9,69.2,100.9c-4.6,5.3-9,10.8-13.2,16.4
	C25.8,158.4,8,209.1,8,264s17.8,105.6,48,146.7c2.5,3.4,5,6.7,7.7,10C109.2,476.4,178.4,512,256,512s146.8-35.6,192.3-91.3
	c10.2-12.4,19.1-25.9,26.7-40.2c18.5-34.7,29-74.4,29-116.5S493.5,182.2,475,147.5z M237.7,413.6l-11-10.9c-9.5-9.5-9.3-25,0.4-34.3
	l75.5-72.4H120c-13.3,0-24-10.7-24-24v-16c0-13.3,10.7-24,24-24h182.6l-75.5-72.4c-9.7-9.3-9.9-24.8-0.4-34.4l11-10.9
	c9.3-9.4,24.5-9.4,33.9,0l132.7,132.8c9.4,9.3,9.4,24.5,0,33.9L271.6,413.6c-4.7,4.7-10.8,7-16.9,7
	C248.5,420.7,242.4,418.3,237.7,413.6z"/>
</svg>
